<svg id="Icons" xmlns="http://www.w3.org/2000/svg" viewBox="0 0 512 512"><defs><style>.cls-1{fill:#fa4654;}.cls-2{fill:#e52e44;}.cls-3{fill:#6b250c;}.cls-4{fill:#7a2b13;}.cls-5{fill:#962a11;}.cls-6{fill:#efb732;}.cls-7{fill:#dd8c29;}.cls-8{fill:#fff;}.cls-9{fill:#ebd9ea;}.cls-10{fill:#f39e22;}.cls-11{fill:#f9c744;}.cls-12{fill:#c44a1a;}.cls-13{fill:#fa80a4;}</style></defs><title>019-beer-export</title><circle class="cls-1" cx="256" cy="256" r="255.98"/><path class="cls-2" d="M11.24,331A255.6,255.6,0,0,0,170.15,497.16c133.19,47.41,279.6-22.12,327-155.31a254.7,254.7,0,0,0,8-144.69,76.79,76.79,0,0,1-15.63-2.42c-27.1-7.13-52.4-27.8-79.84-22.08-18.82,3.92-33,19.74-42.27,36.57S352.27,244.71,342.06,261a112.53,112.53,0,0,1-153.75,36.47C170.12,286.44,152,269.44,131,273.19c-28.5,5.11-39.74,45.21-68.09,51.07-9.15,1.88-18.6-.24-27.92.12A54.35,54.35,0,0,0,11.24,331Z"/><path class="cls-3" d="M247.75,263,203.1,429.61a21,21,0,0,1-25.75,14.88L108.47,426A21,21,0,0,1,93.6,400.27l44.64-166.63a28.86,28.86,0,0,1,28.19-21.39,14.69,14.69,0,0,0,14.16-10.14l23.74-72.58-.57-.15a6.37,6.37,0,0,1-4-9.17l8.92-16.71a6.36,6.36,0,0,1,7.27-3.17l31.09,8.33A6.38,6.38,0,0,1,251.8,115L251.17,134a6.39,6.39,0,0,1-8,6l-.57-.15L226.84,214.5A14.69,14.69,0,0,0,234,230.37,28.85,28.85,0,0,1,247.75,263Z"/><path class="cls-4" d="M247.75,263,203.1,429.61a21,21,0,0,1-25.75,14.88l-49.73-13.33a21,21,0,0,1-14.86-25.76l43-160.33a21.67,21.67,0,0,1,26.57-15.36,14.72,14.72,0,0,0,14.16-10.14l28.44-90.16v0a.26.26,0,0,0-.19-.3,6.62,6.62,0,0,1-4.13-9.53l8.4-15.74,18.1,4.85A6.38,6.38,0,0,1,251.8,115L251.17,134a6.39,6.39,0,0,1-8,6l-.57-.15L226.84,214.5A14.69,14.69,0,0,0,234,230.37,28.85,28.85,0,0,1,247.75,263Z"/><ellipse class="cls-5" cx="222.41" cy="241.74" rx="10.57" ry="17.69" transform="translate(-91.08 143.59) rotate(-30)"/><ellipse class="cls-5" cx="231.66" cy="274.66" rx="12.17" ry="7.51" transform="translate(-55.6 490.5) rotate(-86.78)"/><path class="cls-5" d="M113.62,398.87h42.59a6.56,6.56,0,0,1,6.56,6.56v0a6.56,6.56,0,0,1-6.56,6.56H113.62a0,0,0,0,1,0,0V398.87a0,0,0,0,1,0,0Z" transform="translate(109.64 -21.95) rotate(15)"/><rect class="cls-5" x="170.21" y="410.71" width="24.35" height="13.12" rx="6.56" transform="translate(114.21 -32.99) rotate(15)"/><path class="cls-5" d="M235.3,149.12h0a5.49,5.49,0,0,1,3.95,6.43L231.16,194a5.49,5.49,0,0,1-6.8,4.17l-2.06-.55a5.48,5.48,0,0,1-3.88-6.72L228.57,153A5.49,5.49,0,0,1,235.3,149.12Z"/><polygon class="cls-6" points="236.67 304.32 212.85 393.22 103.35 363.88 127.17 274.98 149.22 269.33 190.18 258.84 236.67 304.32"/><polygon class="cls-7" points="149.22 269.33 122.51 369.02 103.35 363.88 127.17 274.98 149.22 269.33"/><path class="cls-8" d="M231.17,324.83,209.41,319c-1.49-15.57-11.59-29-26.51-33s-30.38,2.57-39.46,15.32l-21.77-5.83-7.78,29,21.77,5.83c1.49,15.58,11.58,29,26.51,33s30.38-2.57,39.46-15.32l21.76,5.84Z"/><rect class="cls-9" x="117.44" y="297.54" width="19.84" height="30.06" transform="translate(85.24 -22.31) rotate(15)"/><ellipse class="cls-10" cx="172.53" cy="324.68" rx="29.03" ry="26.71" transform="translate(-185.74 407.3) rotate(-75)"/><ellipse class="cls-11" cx="172.53" cy="324.68" rx="21.67" ry="19.94" transform="translate(-185.74 407.3) rotate(-75)"/><rect class="cls-12" x="163.81" y="312.47" width="22.15" height="5.87" rx="2.94" transform="translate(87.59 -34.52) rotate(15)"/><rect class="cls-12" x="153.8" y="322.7" width="36.7" height="5.87" rx="2.94" transform="translate(90.15 -33.46) rotate(15)"/><path class="cls-3" d="M373.76,233.65,418.4,400.27A21,21,0,0,1,403.54,426l-68.87,18.46a21,21,0,0,1-25.77-14.88L264.25,263A28.87,28.87,0,0,1,278,230.37a14.7,14.7,0,0,0,7.19-15.86l-15.73-74.73-.57.15a6.38,6.38,0,0,1-8-6L260.21,115a6.38,6.38,0,0,1,4.71-6.38L296,100.33a6.39,6.39,0,0,1,7.29,3.16l8.92,16.72a6.39,6.39,0,0,1-4,9.17l-.57.15,23.74,72.58a14.71,14.71,0,0,0,14.16,10.15A28.85,28.85,0,0,1,373.76,233.65Z"/><path class="cls-4" d="M373.76,233.65,418.4,400.27A21,21,0,0,1,403.54,426l-49.73,13.33a21,21,0,0,1-25.74-14.88l-43-160.34a21.67,21.67,0,0,1,15.34-26.58,14.74,14.74,0,0,0,7.19-15.86l-20.46-92.3v0a.25.25,0,0,0-.31-.16,6.63,6.63,0,0,1-8.35-6.19l-.6-17.83,18.1-4.85a6.39,6.39,0,0,1,7.29,3.16l8.92,16.72a6.39,6.39,0,0,1-4,9.17l-.57.15,23.74,72.58a14.71,14.71,0,0,0,14.16,10.15A28.85,28.85,0,0,1,373.76,233.65Z"/><ellipse class="cls-5" cx="341.19" cy="227.92" rx="10.57" ry="17.69" transform="translate(-26.79 409.44) rotate(-60)"/><ellipse class="cls-5" cx="365.66" cy="251.8" rx="7.51" ry="12.17" transform="translate(-74.23 191.73) rotate(-26.78)"/><path class="cls-5" d="M325.53,405.22h42.59a6.56,6.56,0,0,1,6.56,6.56v0a6.56,6.56,0,0,1-6.56,6.56H325.53a0,0,0,0,1,0,0V405.22a0,0,0,0,1,0,0Z" transform="translate(-94.65 104.64) rotate(-15)"/><rect class="cls-5" x="382.11" y="393.38" width="24.35" height="13.12" rx="6.56" transform="translate(-90.08 115.68) rotate(-15)"/><path class="cls-5" d="M306,141.26h0a5.48,5.48,0,0,1,6.64,3.6l12.21,37.33a5.48,5.48,0,0,1-3.8,7l-2.06.55a5.48,5.48,0,0,1-6.72-3.88L302.16,148A5.48,5.48,0,0,1,306,141.26Z"/><polygon class="cls-6" points="384.83 274.98 408.65 363.88 299.15 393.23 275.33 304.32 291.61 288.4 321.82 258.84 384.83 274.98"/><polygon class="cls-7" points="291.61 288.4 318.32 388.09 299.15 393.23 275.33 304.32 291.61 288.4"/><path class="cls-8" d="M390.33,295.49l-21.77,5.83C359.48,288.57,344,282,329.1,286s-25,17.42-26.51,33l-21.76,5.83,7.78,29L310.37,348c9.08,12.74,24.53,19.31,39.46,15.31s25-17.41,26.51-33l21.77-5.83Z"/><rect class="cls-9" x="284.38" y="321.75" width="19.84" height="30.06" transform="translate(-77.14 87.65) rotate(-15)"/><ellipse class="cls-10" cx="339.47" cy="324.68" rx="26.71" ry="29.03" transform="matrix(0.97, -0.26, 0.26, 0.97, -72.47, 98.92)"/><ellipse class="cls-11" cx="339.47" cy="324.68" rx="19.94" ry="21.67" transform="matrix(0.97, -0.26, 0.26, 0.97, -72.47, 98.92)"/><rect class="cls-12" x="325.79" y="312.54" width="22.15" height="5.87" rx="2.94" transform="translate(-70.17 97.94) rotate(-15)"/><rect class="cls-12" x="321.26" y="322.77" width="36.7" height="5.87" rx="2.94" transform="translate(-72.73 99) rotate(-15)"/><rect class="cls-13" x="250.98" y="20.88" width="10.05" height="64.26" rx="5.02"/><rect class="cls-13" x="219.37" y="35.88" width="10.05" height="51.97" rx="5.02" transform="translate(-8.37 60.19) rotate(-15)"/><rect class="cls-13" x="190.98" y="58.59" width="10.05" height="38.45" rx="5.02" transform="translate(-12.65 108.43) rotate(-30)"/><rect class="cls-13" x="282.58" y="35.88" width="10.05" height="51.97" rx="5.02" transform="translate(549.4 196.06) rotate(-165)"/><rect class="cls-13" x="310.97" y="58.59" width="10.05" height="38.45" rx="5.02" transform="translate(550.74 303.2) rotate(-150)"/></svg>